<svg height="256" viewBox="0 0 256 256" width="256" xmlns="http://www.w3.org/2000/svg"><path d="m128 240c-53.019 0-96-21.49-96-48v-128c0-26.51 42.981-48 96-48s96 21.49 96 48v128c0 26.51-42.981 48-96 48zm-80-48c0 17.673 35.817 32 80 32s80-14.327 80-32v-13.488c-17.195 12.945-46.591 21.488-80 21.488s-62.805-8.543-80-21.488zm80-160c-44.183 0-80 14.327-80 32v8c0 17.673 35.817 32 80 32s80-14.327 80-32v-8c0-17.673-35.817-32-80-32zm80 66.512c-17.195 12.945-46.591 21.488-80 21.488s-62.805-8.543-80-21.488v13.488c0 17.673 35.817 32 80 32s80-14.327 80-32zm0 40c-17.195 12.945-46.591 21.488-80 21.488s-62.805-8.543-80-21.488v13.488c0 17.673 35.817 32 80 32s80-14.327 80-32z" fill="#fff" fill-rule="evenodd"/></svg>