<svg fill="none" height="256" viewBox="0 0 256 256" width="256" xmlns="http://www.w3.org/2000/svg"><path clip-rule="evenodd" d="m232 48c2.122 0 4.157.8425 5.657 2.3428 1.501 1.5003 2.343 3.5355 2.343 5.6572v144c0 2.122-.842 4.157-2.343 5.657-1.5 1.501-3.535 2.343-5.657 2.343h-208c-2.1217 0-4.1569-.842-5.6572-2.343-1.5003-1.5-2.3428-3.535-2.3428-5.657v-144c0-2.1217.8425-4.1569 2.3428-5.6572s3.5355-2.3428 5.6572-2.3428zm-81.544 87.94c-12.408 10.712-32.524 10.712-44.931 0l-73.525-63.4771v119.5371h192v-119.5537zm-34.598-14.14c3.388 2.635 7.558 4.066 11.85 4.066s8.462-1.431 11.85-4.066l70.075-57.8h-163.6398z" fill="#fff" fill-rule="evenodd"/></svg>