<svg fill="none" height="256" viewBox="0 0 256 256" width="256" xmlns="http://www.w3.org/2000/svg"><g fill="#fff"><path d="m73.9668 163.221c3.1037-.618 6.3215-.3 9.2451.911 2.9235 1.211 5.4226 3.261 7.1807 5.892 1.758 2.631 2.6962 5.725 2.6963 8.889 0 3.165-.9382 6.259-2.6963 8.89s-4.2572 4.681-7.1807 5.892c-2.9236 1.211-6.1414 1.529-9.2451.911-3.1036-.617-5.9539-2.142-8.1914-4.379-3.0004-3.001-4.6865-7.071-4.6865-11.314.0001-4.243 1.6861-8.313 4.6865-11.313 2.2375-2.238 5.088-3.762 8.1914-4.379z"/><path d="m56 112c3.1643 0 6.2576.938 8.8887 2.696s4.6825 4.257 5.8935 7.181c1.211 2.923 1.5275 6.14.9102 9.244-.6174 3.104-2.1413 5.955-4.3789 8.192-2.2377 2.238-5.0887 3.762-8.1924 4.379-3.1036.618-6.3206.301-9.2441-.91-2.9236-1.211-5.4226-3.262-7.1807-5.893-1.7579-2.631-2.6963-5.725-2.6963-8.889 0-4.243 1.6859-8.313 4.6865-11.313 3.0006-3.001 7.07-4.687 11.3135-4.687z"/><path d="m200 112c3.164 0 6.258.938 8.889 2.696s4.682 4.257 5.893 7.181c1.211 2.923 1.528 6.14.91 9.244-.617 3.104-2.141 5.955-4.379 8.192-2.237 2.238-5.088 3.762-8.192 4.379-3.104.618-6.321.301-9.244-.91-2.924-1.211-5.423-3.262-7.181-5.893s-2.696-5.725-2.696-8.889c0-4.243 1.686-8.313 4.687-11.313 3-3.001 7.07-4.687 11.313-4.687z"/><path d="m73.9668 61.3984c3.1037-.6174 6.3215-.3008 9.2451.9102s5.4226 3.2615 7.1807 5.8926c1.7581 2.6312 2.6963 5.7251 2.6963 8.8896-.0001 3.1643-.9383 6.2576-2.6963 8.8887-1.7581 2.6312-4.257 4.6826-7.1807 5.8935-2.9236 1.211-6.1414 1.5276-9.2451.9102-3.1034-.6174-5.9539-2.1415-8.1914-4.3789-1.486-1.4858-2.6655-3.2501-3.4697-5.1914-.8042-1.9412-1.2178-4.0219-1.2178-6.1231 0-2.1013.4135-4.1826 1.2178-6.124.8042-1.9413 1.9837-3.7047 3.4697-5.1904v.0019c2.2375-2.2375 5.0879-3.7614 8.1914-4.3789z"/><path d="m175.79 61.3984c3.104-.6174 6.322-.3008 9.245.9102 2.924 1.211 5.423 3.2615 7.181 5.8926 1.758 2.6312 2.696 5.7251 2.696 8.8896 0 3.1643-.938 6.2577-2.696 8.8887-1.758 2.6311-4.257 4.6825-7.181 5.8935-2.923 1.211-6.141 1.5276-9.245.9102s-5.955-2.1412-8.192-4.3789c-1.486-1.4858-2.664-3.2501-3.468-5.1914-.804-1.9414-1.218-4.0227-1.218-6.124s.415-4.1819 1.219-6.1231c.754-1.82 1.837-3.4841 3.194-4.9092l.273-.2793c2.237-2.2376 5.088-3.7614 8.192-4.3789z"/><path d="m128 40c3.164 0 6.258.9384 8.889 2.6963 2.631 1.7581 4.682 4.2571 5.893 7.1807 1.211 2.9235 1.528 6.1405.91 9.2441-.617 3.1037-2.141 5.9547-4.379 8.1924-2.237 2.2376-5.088 3.7615-8.192 4.3789-3.104.6173-6.321.3008-9.244-.9102-2.924-1.211-5.423-3.2624-7.181-5.8935s-2.696-5.7244-2.696-8.8887c0-4.2435 1.686-8.3129 4.687-11.3135 3-3.0006 7.07-4.6865 11.313-4.6865z"/><path clip-rule="evenodd" d="m128 14c60.462 0 109.351 47.1138 113.336 106.357 1.057 6.016.851 12.191-.609 18.13-1.559 6.338-4.507 12.251-8.631 17.309-4.125 5.058-9.323 9.136-15.217 11.938-5.894 2.803-12.338 4.26-18.864 4.266h-40.265c-1.79 0-3.508.711-4.773 1.977-1.204 1.203-1.904 2.814-1.971 4.507.047.757.153 1.509.314 2.249.121.388.217.6.263.694.051.103.105.196.214.344.138.189.369.474.891 1.05.277.307.537.589.931 1.018.362.394.798.872 1.259 1.394 2.173 2.466 10.122 10.093 10.122 23.267 0 8.885-3.529 17.406-9.812 23.688-6.282 6.283-14.803 9.812-23.688 9.812h-3.5c-30.2347 0-59.2312-12.011-80.6104-33.39-21.3791-21.379-33.3896-50.375-33.3896-80.61 0-30.2347 12.0105-59.2312 33.3896-80.6104 21.3792-21.3791 50.3757-33.3896 80.6104-33.3896zm0 16c-25.991 0-50.9183 10.3246-69.2969 28.7031-18.3785 18.3786-28.7031 43.3059-28.7031 69.2969s10.3246 50.918 28.7031 69.297c18.3786 18.378 43.3059 28.703 69.2969 28.703h3.5c4.641 0 9.092-1.844 12.374-5.126s5.126-7.733 5.126-12.374c0-6.247-3.323-9.509-6.125-12.688-2.802-3.178-5.433-5.316-7.034-11.003-.48-1.987-.762-4.017-.841-6.059 0-6.034 2.397-11.82 6.663-16.087 4.267-4.266 10.053-6.663 16.087-6.663h40.25c4.155-.004 8.257-.931 12.009-2.715s7.061-4.38 9.686-7.6c2.626-3.22 4.502-6.984 5.494-11.018.993-4.034 1.075-8.239.243-12.31-2.981-51.4434-45.241-92.357-97.432-92.357z" fill-rule="evenodd"/></g></svg>