<svg height="256" viewBox="0 0 256 256" width="256" xmlns="http://www.w3.org/2000/svg"><path d="m207.2 207.2a112 112 0 1 1 0-158.392 112 112 0 0 1 0 158.392zm-11.318-147.082a96 96 0 1 0 0 135.764 96 96 0 0 0 0-135.764zm-47.382 67.782 25.4 25.4a7.193 7.193 0 0 1 0 10.172l-10.172 10.171a7.193 7.193 0 0 1 -10.172 0l-25.4-25.4-25.656 25.649a7.211 7.211 0 0 1 -10.2 0l-10.2-10.2a7.211 7.211 0 0 1 0-10.2l25.647-25.647-25.4-25.4a7.193 7.193 0 0 1 0-10.172l10.176-10.173a7.192 7.192 0 0 1 10.172 0l25.4 25.4 25.4-25.4a7.211 7.211 0 0 1 10.2 0l10.2 10.2a7.211 7.211 0 0 1 0 10.2z" fill="#fff" fill-rule="evenodd"/></svg>