<svg height="256" viewBox="0 0 256 256" width="256" xmlns="http://www.w3.org/2000/svg"><path d="m207.2 48.8a112 112 0 1 1 -158.4 0 112 112 0 0 1 158.4 0zm-11.318 11.318a96 96 0 1 1 -135.764 0 96 96 0 0 1 135.764 0zm-35.882 115.882a16 16 0 1 1 16-16 16 16 0 0 1 -16 16zm-64-64a16 16 0 1 1 16-16 16 16 0 0 1 -16 16zm67.019-30.842 11.694 11.694a4.134 4.134 0 0 1 0 5.847l-76.013 76.014a4.134 4.134 0 0 1 -5.847 0l-11.695-11.694a4.135 4.135 0 0 1 0-5.848l76.013-76.013a4.135 4.135 0 0 1 5.848 0z" fill="#fff" fill-rule="evenodd"/></svg>