<svg height="256" viewBox="0 0 256 256" width="256" xmlns="http://www.w3.org/2000/svg"><path d="m208 200a8 8 0 1 1 -8-8 8 8 0 0 1 8 8zm16 40h-192a16 16 0 0 1 -16-16v-48a16 16 0 0 1 16-16h16l16 16h-24a8 8 0 0 0 -8 8v32a8 8 0 0 0 8 8h176a8 8 0 0 0 8-8v-32a8 8 0 0 0 -8-8h-24l16-16h16a16 16 0 0 1 16 16v48a16 16 0 0 1 -16 16zm-167.364-121.668 64.746 64.746a9.159 9.159 0 0 0 12.95 0l64.746-64.746a9.126 9.126 0 0 0 2.675-6.332h22.105a18.244 18.244 0 0 1 -5.357 12.806l-77.695 77.7a18.312 18.312 0 0 1 -25.9 0l-77.7-77.7a18.246 18.246 0 0 1 -5.35-12.806h22.105a9.123 9.123 0 0 0 2.675 6.332zm87.364-6.332v-16h-32v16h-80a16 16 0 0 1 16-16h48v-64a16 16 0 0 1 16-16h13.634a18.39 18.39 0 0 1 4.446 0h13.92a16 16 0 0 1 16 16v64h48a16 16 0 0 1 16 16zm0-72a8 8 0 0 0 -8-8h-16a8 8 0 0 0 -8 8v56h32z" fill="#fff" fill-rule="evenodd"/></svg>