<svg height="256" viewBox="0 0 256 256" width="256" xmlns="http://www.w3.org/2000/svg"><path d="m232 224h-8v-8a8 8 0 0 0 -8-8h-16a8 8 0 0 0 -8 8v8h-128v-8a8 8 0 0 0 -8-8h-16a8 8 0 0 0 -8 8v8h-8a8 8 0 0 1 -8-8v-176a8 8 0 0 1 8-8h8v8a8 8 0 0 0 8 8h16a8 8 0 0 0 8-8v-8h128v8a8 8 0 0 0 8 8h16a8 8 0 0 0 8-8v-8h8a8 8 0 0 1 8 8v176a8 8 0 0 1 -8 8zm-168-152a8 8 0 0 0 -8-8h-16a8 8 0 0 0 -8 8v16a8 8 0 0 0 8 8h16a8 8 0 0 0 8-8zm0 48a8 8 0 0 0 -8-8h-16a8 8 0 0 0 -8 8v16a8 8 0 0 0 8 8h16a8 8 0 0 0 8-8zm0 48a8 8 0 0 0 -8-8h-16a8 8 0 0 0 -8 8v16a8 8 0 0 0 8 8h16a8 8 0 0 0 8-8zm112-112a8 8 0 0 0 -8-8h-80a8 8 0 0 0 -8 8v48a8 8 0 0 0 8 8h80a8 8 0 0 0 8-8zm0 96a8 8 0 0 0 -8-8h-80a8 8 0 0 0 -8 8v48a8 8 0 0 0 8 8h80a8 8 0 0 0 8-8zm48-80a8 8 0 0 0 -8-8h-16a8 8 0 0 0 -8 8v16a8 8 0 0 0 8 8h16a8 8 0 0 0 8-8zm0 48a8 8 0 0 0 -8-8h-16a8 8 0 0 0 -8 8v16a8 8 0 0 0 8 8h16a8 8 0 0 0 8-8zm0 48a8 8 0 0 0 -8-8h-16a8 8 0 0 0 -8 8v16a8 8 0 0 0 8 8h16a8 8 0 0 0 8-8z" fill="#fff" fill-rule="evenodd"/></svg>