<svg height="256" viewBox="0 0 256 256" width="256" xmlns="http://www.w3.org/2000/svg"><path d="m240 160v18s-21.49 14-48 14-48-13-48-13-21.49-16-48-16-48 16-48 16v53a8 8 0 0 1 -16 0v-168a8.02 8.02 0 0 1 .123-1.35 23.992 23.992 0 1 1 31.877-22.65c0 .427-.042.844-.064 1.266a91.2 91.2 0 0 1 32.064-6.266c26.51 0 48 13 48 13s21.49 16 48 16 48-16 48-16v18zm-200-128a8 8 0 1 0 8 8 8 8 0 0 0 -8-8zm8 30.605c-.041.014-.083.024-.123.038a8.021 8.021 0 0 1 .123 1.357zm176 11.153a91.164 91.164 0 0 1 -32 6.242c-26.51 0-48-13-48-13s-21.49-16-48-16-48 16-48 16v94s21.49-14 48-14 48 13 48 13 21.49 16 48 16c12.3 0 23.507-3.443 32-7.134z" fill="#fff" fill-rule="evenodd"/></svg>