<svg height="256" viewBox="0 0 256 256" width="256" xmlns="http://www.w3.org/2000/svg"><path d="m240 128a112 112 0 1 1 -112-112 112 112 0 0 1 112 112zm-16 0a95.815 95.815 0 0 0 -5.484-32h-44.516a253.472 253.472 0 0 1 2 32 253.472 253.472 0 0 1 -2 32h44.515a95.815 95.815 0 0 0 5.485-32zm-96-96c-11.843 0-22.175 19.314-27.708 48h55.416c-5.533-28.686-15.865-48-27.708-48zm-30.172 64a281 281 0 0 0 0 64h60.344a274.6 274.6 0 0 0 1.828-32 274.6 274.6 0 0 0 -1.828-32zm30.172 128c11.842 0 22.175-19.314 27.708-48h-55.416c5.533 28.686 15.866 48 27.708 48zm83.125-48h-39.75c-3.615 17.751-9.173 32.918-16.032 44.032a96.243 96.243 0 0 0 55.782-44.032zm-110.468 44.032c-6.857-11.114-12.417-26.281-16.031-44.032h-39.751a96.244 96.244 0 0 0 55.782 44.032zm-68.657-92.032a95.8 95.8 0 0 0 5.484 32h44.516a257.115 257.115 0 0 1 0-64h-44.516a95.8 95.8 0 0 0 -5.484 32zm12.875-48h39.75c3.615-17.751 9.175-32.918 16.032-44.032a96.248 96.248 0 0 0 -55.782 44.032zm110.468-44.032c6.857 11.114 12.417 26.281 16.032 44.032h39.75a96.247 96.247 0 0 0 -55.782-44.032z" fill="#fff" fill-rule="evenodd"/></svg>