<svg xmlns="http://www.w3.org/2000/svg" width="16" height="16" viewBox="0 0 16 16">
  <defs>
    <style>
      .cls-1 {
        fill: #fff;
        fill-rule: evenodd;
      }
    </style>
  </defs>
  <path id="icon" class="cls-1" d="M14,11H9.5v2h1.75a0.75,0.75,0,0,1,.75.75,0.25,0.25,0,0,1-.25.25H4.25A0.25,0.25,0,0,1,4,13.75,0.75,0.75,0,0,1,4.75,13H6.5V11H2a1,1,0,0,1-1-1V3A1,1,0,0,1,2,2H14a1,1,0,0,1,1,1v7A1,1,0,0,1,14,11Zm0-7.75A0.25,0.25,0,0,0,13.75,3H2.25A0.25,0.25,0,0,0,2,3.25v6.5a0.25,0.25,0,0,0,.25.25h11.5A0.25,0.25,0,0,0,14,9.75V3.25ZM6.617,8.7a0.369,0.369,0,0,1-.4-0.018A0.369,0.369,0,0,1,6,8.345V4.655a0.369,0.369,0,0,1,.221-0.338,0.369,0.369,0,0,1,.4-0.018l3.2,1.845A0.369,0.369,0,0,1,10,6.5a0.369,0.369,0,0,1-.183.356Z"/>
</svg>
