<svg height="256" viewBox="0 0 256 256" width="256" xmlns="http://www.w3.org/2000/svg"><path d="m180 96 47.141-47.141 12.979 48.341-46.92 46.828-37.715-10.085-99.129 98.966a23.669 23.669 0 0 1 -33.5-33.446l99.15-98.99-10.083-37.555 46.923-46.828 48.181 12.884-47.027 47.026 4.312 15.688zm-.417-59.653-16.462-4.411-35.185 35.185 10.513 39.234-104.426 104.256a7.89 7.89 0 1 0 11.167 11.149l104.394-104.225 39.295 10.529 35.185-35.185-4.411-16.462-35.067 35.625-32.043-8.585-8.585-32.043zm-85.583 70.653-11-11h-35l-32-56 24-24 56 32v35l11 11zm-14-51-36-20-8 8 20 36h24zm102 162c3.2 3.2 9.32 2.915 12.522-.287l23.191-23.191a8.2 8.2 0 0 0 0-11.6l-21.713-21.922 12-11 27.106 27.129a16.4 16.4 0 0 1 0 23.191l-34.786 34.786a16.4 16.4 0 0 1 -23.191 0l-11.6-11.595-39.529-39.511 11-11z" fill="#fff" fill-rule="evenodd"/></svg>