<svg height="256" viewBox="0 0 256 256" width="256" xmlns="http://www.w3.org/2000/svg"><path d="m232 168a8 8 0 0 1 -8-8c0-6.759-8.436-12.473-20.287-14.818-3.438-6.318-8.889-12.028-16.072-16.889 1.459-.093 2.866-.293 4.359-.293 26.51 0 48 14.327 48 32a8 8 0 0 1 -8 8zm-32-56a24 24 0 1 1 24-24 24 24 0 0 1 -24 24zm0-32a8 8 0 1 0 8 8 8 8 0 0 0 -8-8zm-72 32a32 32 0 1 1 32-32 32 32 0 0 1 -32 32zm0-48a16 16 0 1 0 16 16 16 16 0 0 0 -16-16zm-72 48a24 24 0 1 1 24-24 24 24 0 0 1 -24 24zm0-32a8 8 0 1 0 8 8 8 8 0 0 0 -8-8zm12.359 48.293c-7.183 4.861-12.634 10.571-16.073 16.889-11.85 2.345-20.286 8.059-20.286 14.818a8 8 0 0 1 -16 0c0-17.673 21.49-32 48-32 1.493 0 2.9.2 4.359.293zm59.641-.293c35.346 0 64 14.327 64 32v16a16 16 0 0 1 -16 16h-96a16 16 0 0 1 -16-16v-16c0-17.673 28.654-32 64-32zm-48 40a8 8 0 0 0 8 8h80a8 8 0 0 0 8-8v-8c0-8.837-21.49-16-48-16s-48 7.163-48 16z" fill="#fff" fill-rule="evenodd"/></svg>