<svg height="256" viewBox="0 0 256 256" width="256" xmlns="http://www.w3.org/2000/svg"><path d="m200 224a8 8 0 0 1 -8-8v-96a8 8 0 0 1 8-8 72 72 0 0 0 -144 0 8 8 0 0 1 8 8v96a8 8 0 0 1 -8 8c-22.091 0-40-25.072-40-56 0-22.961 9.875-42.684 24-51.327v-4.673a88 88 0 0 1 176 0v4.673c14.125 8.643 24 28.366 24 51.327 0 30.928-17.909 56-40 56zm-120-53 1-24 8 27 4-42 8 43 7-53 9 54 10-59 3 59 10-54 3 50 13-47 3 52 11-45s.749 41.6 1 42 10-31 10-31l3 28.2-5 16.8-1-20-13 36 2-38-13 38-1-50-12 46-3-43-12 56-1-59-10 50-7-48-7 48-6-41-4 33-7-23v24s-5.431-19.446-6-19-1 17-1 17l-5-20 3-21z" fill="#fff" fill-rule="evenodd"/></svg>