<svg height="256" viewBox="0 0 256 256" width="256" xmlns="http://www.w3.org/2000/svg"><path d="m128 240 48.5-84h-.005a55.959 55.959 0 0 0 -9.316-68h65.44a112.005 112.005 0 0 1 -104.619 152zm-54.246-125.957-32.695-56.629a111.969 111.969 0 0 1 183.92 14.586h-96.979a56.023 56.023 0 0 0 -54.246 42.043zm54.246 53.957a40 40 0 1 1 40-40 40 40 0 0 1 -40 40zm-48.491-12a55.976 55.976 0 0 0 63.539 25.941l-32.715 56.659a111.978 111.978 0 0 1 -79.32-166.586l48.487 83.986z" fill="#fff" fill-rule="evenodd"/></svg>