<svg height="256" viewBox="0 0 256 256" width="256" xmlns="http://www.w3.org/2000/svg" xmlns:xlink="http://www.w3.org/1999/xlink"><linearGradient id="a" gradientUnits="userSpaceOnUse" x1="-24" x2="443.8" y1="-19.3" y2="-19.3"><stop offset="0" stop-color="#fff"/><stop offset="1" stop-color="#fff"/></linearGradient><path d="m236.4 100.8q1.8 6.9 2.7 14 .9 7 1 14.2 0 7.1-.9 14.2c-.1 1.5-.3 2.9-.5 4.3-3.4 20-12.3 38.4-25.3 53.6-5 5.7-10.6 11-16.7 15.7-22.2 17-50.1 25.2-78 22.8-28-2.4-54.1-15.1-73.1-35.6s-29.6-47.4-29.6-75.3v-.6q0-.4 0-.8.1-1.5.2-3.1.1-1.9.4-3.8.1-1 .2-2 .1-.6.2-1.2c.7-6.5 2-12.3 2.1-12.4q1-4.5 2.4-8.9 1.5-4.5 3.4-8.7 1.9-4.3 4.2-8.3 2.3-4.1 5-7.9 1.2-1.6 2.4-3.2 1.3-1.7 2.6-3.2.9-1 1.7-2 .5-.6 1-1.1 1.4-1.5 2.8-3 1.3-1.2 2.6-2.5 1.3-1.2 2.7-2.4 1.4-1.1 2.8-2.2 1.4-1.1 2.9-2.2.4-.3.9-.6.5-.2.9-.5.5-.2 1-.4.5-.3.9-.5 0 0 0 .1 0 0 .1 0c-.3 3.1-.5 15.6 1.7 23.3.6 1.9 1.2 3.5 2.1 4.6h.1q0 0 0-.1-.1 0-.1 0 2.8-3.2 5.9-6.2 3.1-2.9 6.5-5.5 3.4-2.6 7.1-4.9 3.7-2.2 7.5-4.1 0 0 0 .1 0-.1.1-.1-.9 3.4-1.3 6.8-.4 3.4-.4 6.9 0 3.4.5 6.8.5 3.5 1.5 6.8.4.2.7.5.4.2.8.5.3.3.7.6.3.3.7.6c1.7 1.4 3.6 3.3 7.7 7.3 7.6 7.4 27.1 15.2 27.2 16.1-.2 2.7-10.1 12.3-13.5 12.3-31.9 0-37.1 19.2-37.1 19.2.9 10.1 5.6 19 12.4 26 4 4.3 8.9 7.8 14 10.4q-.1 0-.3-.1.2.1.3.2c-.5-.3-1-.5-1.5-.8q.8.4 1.6.8h-.1q1 .4 1.9.9 1.7.7 3.3 1.3 1.8.6 3.6 1.1 1.8.5 3.6.8 1.8.4 3.7.6 1.8.2 3.7.3c6.9.3 13.2-.5 18.7-2.1 39.1-11.7 43-66.8 7.7-84.4q0 0 0 0 3.5-.5 7.1-.3 3.6.2 7 1.1 3.5.8 6.8 2.3 3.2 1.4 6.1 3.4c-2.4-4.3-5.4-8.3-8.9-11.8q-3-2.9-6.4-5.5-2.5-1.9-5.4-3.5c-4.3-2.5-8.9-4.4-13.7-5.7s-9.7-2-14.7-2c-1.3 0-2.6.1-3.9.2q0 0 0 0 0 0-.1 0c.9-15.2 10.5-45.6 38.6-61.9q.1 0 .1-.1 0 0 0 0 .1 0 .1 0 0 0 .1 0 0 0 0 0 0 0 .1 0 0 0 .1 0 0 .1 0 .1.1 0 .1.1 0 0 0 0 0 0 0 .1 0 0 0 .1.2.5.3 1.1.1 0 .1 0 .1.6.3 1.1.2.5.5 1.1.2.5.5 1 .5 1.1 1.2 2.3c.9 1.5 1.8 2.9 2.7 4.3 14.9 23.5 32.7 36.2 45.5 58.8 2.2 3.9 4.3 8.2 6.2 12.9 0-.1 0-.2 0-.1v-.1q-.7-4.4-1.8-8.7-1.1-4.4-2.6-8.6-1.4-4.3-3.1-8.4-1.8-4.1-3.8-8.1c7.7 4 17.6 16.6 22.5 28.2q2.6 6.7 4.4 13.6zm-15.6-7.8v.1z" fill="url(#a)" fill-rule="evenodd"/></svg>