<svg height="256" viewBox="0 0 256 256" width="256" xmlns="http://www.w3.org/2000/svg"><path d="m128 240a112 112 0 1 1 112-112 112 112 0 0 1 -112 112zm77.951-56h-22.551a118.48 118.48 0 0 1 -15.253 31.2 96.4 96.4 0 0 0 37.804-31.2zm-38.971 0h-30.98v38.647c12.723-4.271 23.747-18.547 30.98-38.647zm8.848-48h-39.828v32h35.63a176.02 176.02 0 0 0 4.198-32zm-39.828-16h39.828a176.021 176.021 0 0 0 -4.2-32h-35.628zm-16 102.647v-38.647h-30.98c7.233 20.1 18.257 34.376 30.98 38.647zm-32.146-7.447a118.447 118.447 0 0 1 -15.254-31.2h-22.55a96.392 96.392 0 0 0 37.804 31.2zm-47.12-47.2h27.509a185.1 185.1 0 0 1 -4.063-32h-31.84a95.359 95.359 0 0 0 8.394 32zm0-80a95.361 95.361 0 0 0 -8.393 32h31.838a185.11 185.11 0 0 1 4.063-32zm9.316-16h22.55a118.463 118.463 0 0 1 15.254-31.2 96.393 96.393 0 0 0 -37.804 31.2zm69.95-38.647c-12.723 4.271-23.747 18.547-30.98 38.647h30.98zm0 54.647h-35.63a176 176 0 0 0 -4.2 32h39.83zm-39.828 48a176 176 0 0 0 4.2 32h35.628v-32zm55.828-102.647v38.647h30.98c-7.233-20.1-18.257-34.376-30.98-38.647zm32.147 7.447a118.5 118.5 0 0 1 15.253 31.2h22.551a96.4 96.4 0 0 0 -37.804-31.2zm47.119 47.2h-27.509a185.118 185.118 0 0 1 4.064 32h31.839a95.357 95.357 0 0 0 -8.394-32zm-23.445 48a185.113 185.113 0 0 1 -4.064 32h27.509a95.356 95.356 0 0 0 8.394-32z" fill="#fff" fill-rule="evenodd"/></svg>