<svg height="256" viewBox="0 0 256 256" width="256" xmlns="http://www.w3.org/2000/svg"><path d="m128 240a112 112 0 1 1 112-112 112 112 0 0 1 -112 112zm83.139-64h-39.779c-3.615 17.733-9.158 32.914-16.012 44.025a96.257 96.257 0 0 0 55.791-44.025zm-83.139 48c10.658 0 21.393-19.314 27.322-48h-54.644c5.929 28.686 16.664 48 27.322 48zm32-96a251.738 251.738 0 0 0 -2.016-32h-59.968a255.014 255.014 0 0 0 0 64h59.968a251.738 251.738 0 0 0 2.016-32zm-59.348 92.025c-6.852-11.111-12.397-26.292-16.012-44.025h-39.779a96.256 96.256 0 0 0 55.791 44.025zm-68.652-92.025a95.764 95.764 0 0 0 5.481 32h44.529a255.694 255.694 0 0 1 0-64h-44.529a95.764 95.764 0 0 0 -5.481 32zm12.861-48h39.779c3.616-17.733 9.159-32.914 16.012-44.025a96.253 96.253 0 0 0 -55.791 44.025zm83.139-48c-10.658 0-21.393 19.314-27.322 48h54.644c-5.929-28.686-16.664-48-27.322-48zm27.348 3.975c6.852 11.111 12.397 26.292 16.012 44.025h39.779a96.254 96.254 0 0 0 -55.791-44.025zm63.171 60.025h-44.529a253 253 0 0 1 2.01 32 253 253 0 0 1 -2.01 32h44.529a96.154 96.154 0 0 0 0-64z" fill="#fff" fill-rule="evenodd"/></svg>