<svg height="256" viewBox="0 0 256 256" width="256" xmlns="http://www.w3.org/2000/svg"><path d="m232 184h-208a8 8 0 0 1 -8-8v-96a8 8 0 0 1 8-8h208a8 8 0 0 1 8 8v96a8 8 0 0 1 -8 8zm-184-92a4 4 0 0 0 -4-4h-8a4 4 0 0 0 -4 4v8a4 4 0 0 0 4 4h8a4 4 0 0 0 4-4zm8 32a4 4 0 0 0 -4-4h-16a4 4 0 0 0 -4 4v8a4 4 0 0 0 4 4h16a4 4 0 0 0 4-4zm0 32a4 4 0 0 0 -4-4h-16a4 4 0 0 0 -4 4v8a4 4 0 0 0 4 4h16a4 4 0 0 0 4-4zm24-64a4 4 0 0 0 -4-4h-8a4 4 0 0 0 -4 4v8a4 4 0 0 0 4 4h8a4 4 0 0 0 4-4zm8 32a4 4 0 0 0 -4-4h-8a4 4 0 0 0 -4 4v8a4 4 0 0 0 4 4h8a4 4 0 0 0 4-4zm24-32a4 4 0 0 0 -4-4h-8a4 4 0 0 0 -4 4v8a4 4 0 0 0 4 4h8a4 4 0 0 0 4-4zm8 32a4 4 0 0 0 -4-4h-8a4 4 0 0 0 -4 4v8a4 4 0 0 0 4 4h8a4 4 0 0 0 4-4zm24-32a4 4 0 0 0 -4-4h-8a4 4 0 0 0 -4 4v8a4 4 0 0 0 4 4h8a4 4 0 0 0 4-4zm8 32a4 4 0 0 0 -4-4h-8a4 4 0 0 0 -4 4v8a4 4 0 0 0 4 4h8a4 4 0 0 0 4-4zm0 32a4 4 0 0 0 -4-4h-72a4 4 0 0 0 -4 4v8a4 4 0 0 0 4 4h72a4 4 0 0 0 4-4zm24-64a4 4 0 0 0 -4-4h-8a4 4 0 0 0 -4 4v8a4 4 0 0 0 4 4h8a4 4 0 0 0 4-4zm8 32a4 4 0 0 0 -4-4h-8a4 4 0 0 0 -4 4v8a4 4 0 0 0 4 4h8a4 4 0 0 0 4-4zm0 32a4 4 0 0 0 -4-4h-8a4 4 0 0 0 -4 4v8a4 4 0 0 0 4 4h8a4 4 0 0 0 4-4zm40-64a4 4 0 0 0 -4-4h-24a4 4 0 0 0 -4 4v8a4 4 0 0 0 4 4h24a4 4 0 0 0 4-4zm0 32a4 4 0 0 0 -4-4h-16a4 4 0 0 0 -4 4v8a4 4 0 0 0 4 4h16a4 4 0 0 0 4-4zm0 32a4 4 0 0 0 -4-4h-16a4 4 0 0 0 -4 4v8a4 4 0 0 0 4 4h16a4 4 0 0 0 4-4z" fill="#fff" fill-rule="evenodd"/></svg>