<svg xmlns="http://www.w3.org/2000/svg" width="256" height="256" viewBox="0 0 256 256">
  <metadata><?xpacket begin="﻿" id="W5M0MpCehiHzreSzNTczkc9d"?>
<x:xmpmeta xmlns:x="adobe:ns:meta/" x:xmptk="Adobe XMP Core 5.6-c142 79.160924, 2017/07/13-01:06:39        ">
   <rdf:RDF xmlns:rdf="http://www.w3.org/1999/02/22-rdf-syntax-ns#">
      <rdf:Description rdf:about=""/>
   </rdf:RDF>
</x:xmpmeta>
                                                                                                    
                                                                                                    
                                                                                                    
                                                                                                    
                                                                                                    
                                                                                                    
                                                                                                    
                                                                                                    
                                                                                                    
                                                                                                    
                                                                                                    
                                                                                                    
                                                                                                    
                                                                                                    
                                                                                                    
                                                                                                    
                                                                                                    
                                                                                                    
                                                                                                    
                                                                                                    
                           
<?xpacket end="w"?></metadata>
<defs>
    <style>
      .cls-1 {
        fill: #fff;
        fill-rule: evenodd;
      }
    </style>
  </defs>
  <path id="keyboard" class="cls-1" d="M232,184H24a8,8,0,0,1-8-8V80a8,8,0,0,1,8-8H232a8,8,0,0,1,8,8v96A8,8,0,0,1,232,184ZM48,92a4,4,0,0,0-4-4H36a4,4,0,0,0-4,4v8a4,4,0,0,0,4,4h8a4,4,0,0,0,4-4V92Zm8,32a4,4,0,0,0-4-4H36a4,4,0,0,0-4,4v8a4,4,0,0,0,4,4H52a4,4,0,0,0,4-4v-8Zm0,32a4,4,0,0,0-4-4H36a4,4,0,0,0-4,4v8a4,4,0,0,0,4,4H52a4,4,0,0,0,4-4v-8ZM80,92a4,4,0,0,0-4-4H68a4,4,0,0,0-4,4v8a4,4,0,0,0,4,4h8a4,4,0,0,0,4-4V92Zm8,32a4,4,0,0,0-4-4H76a4,4,0,0,0-4,4v8a4,4,0,0,0,4,4h8a4,4,0,0,0,4-4v-8Zm24-32a4,4,0,0,0-4-4h-8a4,4,0,0,0-4,4v8a4,4,0,0,0,4,4h8a4,4,0,0,0,4-4V92Zm8,32a4,4,0,0,0-4-4h-8a4,4,0,0,0-4,4v8a4,4,0,0,0,4,4h8a4,4,0,0,0,4-4v-8Zm24-32a4,4,0,0,0-4-4h-8a4,4,0,0,0-4,4v8a4,4,0,0,0,4,4h8a4,4,0,0,0,4-4V92Zm8,32a4,4,0,0,0-4-4h-8a4,4,0,0,0-4,4v8a4,4,0,0,0,4,4h8a4,4,0,0,0,4-4v-8Zm0,32a4,4,0,0,0-4-4H76a4,4,0,0,0-4,4v8a4,4,0,0,0,4,4h72a4,4,0,0,0,4-4v-8Zm24-64a4,4,0,0,0-4-4h-8a4,4,0,0,0-4,4v8a4,4,0,0,0,4,4h8a4,4,0,0,0,4-4V92Zm8,32a4,4,0,0,0-4-4h-8a4,4,0,0,0-4,4v8a4,4,0,0,0,4,4h8a4,4,0,0,0,4-4v-8Zm0,32a4,4,0,0,0-4-4h-8a4,4,0,0,0-4,4v8a4,4,0,0,0,4,4h8a4,4,0,0,0,4-4v-8Zm40-64a4,4,0,0,0-4-4H196a4,4,0,0,0-4,4v8a4,4,0,0,0,4,4h24a4,4,0,0,0,4-4V92Zm0,32a4,4,0,0,0-4-4H204a4,4,0,0,0-4,4v8a4,4,0,0,0,4,4h16a4,4,0,0,0,4-4v-8Zm0,32a4,4,0,0,0-4-4H204a4,4,0,0,0-4,4v8a4,4,0,0,0,4,4h16a4,4,0,0,0,4-4v-8Z"/>
</svg>
