<svg height="256" viewBox="0 0 256 256" width="256" xmlns="http://www.w3.org/2000/svg"><path d="m138.667 165.333-16-16 101.333-101.333 16 16zm53.333-133.333a8 8 0 1 1 8-8 8 8 0 0 1 -8 8zm-32 0a8 8 0 1 1 8-8 8 8 0 0 1 -8 8zm-32 0a8 8 0 1 1 8-8 8 8 0 0 1 -8 8zm-32 0a8 8 0 1 1 8-8 8 8 0 0 1 -8 8zm-32 0a8 8 0 1 1 8-8 8 8 0 0 1 -8 8zm48 128 16 16-32 16zm80-112a15.887 15.887 0 0 1 6.562 1.438l-102.562 102.562-24 64 64-24 72-72v104a16 16 0 0 1 -16 16h-128a16 16 0 0 1 -16-16v-160a16 16 0 0 1 16-16zm-120 96h16a8 8 0 0 0 0-16h-16a8 8 0 0 0 0 16zm0-32h48a8 8 0 0 0 0-16h-48a8 8 0 0 0 0 16zm0-32h80a8 8 0 0 0 0-16h-80a8 8 0 0 0 0 16z" fill="#fff" fill-rule="evenodd"/></svg>