<svg xmlns="http://www.w3.org/2000/svg" width="256" height="256" viewBox="0 0 256 256">
  <metadata><?xpacket begin="﻿" id="W5M0MpCehiHzreSzNTczkc9d"?>
<x:xmpmeta xmlns:x="adobe:ns:meta/" x:xmptk="Adobe XMP Core 5.6-c142 79.160924, 2017/07/13-01:06:39        ">
   <rdf:RDF xmlns:rdf="http://www.w3.org/1999/02/22-rdf-syntax-ns#">
      <rdf:Description rdf:about=""/>
   </rdf:RDF>
</x:xmpmeta>
                                                                                                    
                                                                                                    
                                                                                                    
                                                                                                    
                                                                                                    
                                                                                                    
                                                                                                    
                                                                                                    
                                                                                                    
                                                                                                    
                                                                                                    
                                                                                                    
                                                                                                    
                                                                                                    
                                                                                                    
                                                                                                    
                                                                                                    
                                                                                                    
                                                                                                    
                                                                                                    
                           
<?xpacket end="w"?></metadata>
<defs>
    <style>
      .cls-1 {
        fill: #fff;
        fill-rule: evenodd;
      }
    </style>
  </defs>
  <path id="Rounded_Rectangle_1_copy" data-name="Rounded Rectangle 1 copy" class="cls-1" d="M184,184c-12.3,0-23.507-5.4-32-14.271V176a8,8,0,0,1-16,0V40a8,8,0,0,1,16,0V86.271C160.493,77.4,171.7,72,184,72c26.51,0,48,25.072,48,56S210.51,184,184,184Zm0-96c-17.673,0-32,17.909-32,40s14.327,40,32,40,32-17.909,32-40S201.673,88,184,88ZM112,224a8,8,0,0,1-8-8V169.729C95.507,178.6,84.3,184,72,184c-26.51,0-48-25.072-48-56S45.49,72,72,72c12.3,0,23.507,5.4,32,14.271V80a8,8,0,0,1,16,0V216A8,8,0,0,1,112,224ZM72,88c-17.673,0-32,17.909-32,40s14.327,40,32,40,32-17.909,32-40S89.673,88,72,88Z"/>
</svg>
