<svg height="256" viewBox="0 0 256 256" width="256" xmlns="http://www.w3.org/2000/svg"><path d="m128 240a112 112 0 1 1 112-112 112 112 0 0 1 -112 112zm-8-152a8 8 0 0 0 -16 0v1.6a35.7 35.7 0 0 0 -24-9.6c-22.091 0-40 21.49-40 48s17.909 48 40 48a35.7 35.7 0 0 0 24-9.6v41.6a8 8 0 0 0 16 0zm56-8a35.7 35.7 0 0 0 -24 9.6v-41.6a8 8 0 0 0 -16 0v120a8 8 0 0 0 16 0v-1.6a35.7 35.7 0 0 0 24 9.6c22.091 0 40-21.49 40-48s-17.909-48-40-48zm0 80c-13.255 0-24-14.327-24-32s10.745-32 24-32 24 14.327 24 32-10.745 32-24 32zm-96 0c-13.255 0-24-14.327-24-32s10.745-32 24-32 24 14.327 24 32-10.745 32-24 32z" fill="#fff" fill-rule="evenodd"/></svg>