<svg height="256" viewBox="0 0 256 256" width="256" xmlns="http://www.w3.org/2000/svg"><path d="m184 184c-12.3 0-23.507-5.4-32-14.271v6.271a8 8 0 0 1 -16 0v-136a8 8 0 0 1 16 0v46.271c8.493-8.871 19.7-14.271 32-14.271 26.51 0 48 25.072 48 56s-21.49 56-48 56zm0-96c-17.673 0-32 17.909-32 40s14.327 40 32 40 32-17.909 32-40-14.327-40-32-40zm-72 136a8 8 0 0 1 -8-8v-46.271c-8.493 8.871-19.7 14.271-32 14.271-26.51 0-48-25.072-48-56s21.49-56 48-56c12.3 0 23.507 5.4 32 14.271v-6.271a8 8 0 0 1 16 0v136a8 8 0 0 1 -8 8zm-40-136c-17.673 0-32 17.909-32 40s14.327 40 32 40 32-17.909 32-40-14.327-40-32-40z" fill="#fff" fill-rule="evenodd"/></svg>