<svg height="256" viewBox="0 0 256 256" width="256" xmlns="http://www.w3.org/2000/svg"><path d="m128 240a112 112 0 1 1 112-112 112 112 0 0 1 -112 112zm0-208a96 96 0 1 0 96 96 96 96 0 0 0 -96-96zm44 144c-7.4 0-14.279-2.982-20-8.088v.088a8 8 0 0 1 -16 0v-112a8 8 0 0 1 16 0v32.088c5.721-5.106 12.6-8.088 20-8.088 19.882 0 36 21.49 36 48s-16.118 48-36 48zm0-80c-11.046 0-20 14.327-20 32s8.954 32 20 32 20-14.327 20-32-8.954-32-20-32zm-60 112a8 8 0 0 1 -8-8v-32.088c-5.721 5.106-12.6 8.088-20 8.088-19.882 0-36-21.49-36-48s16.118-48 36-48c7.4 0 14.279 2.982 20 8.088v-.088a8 8 0 0 1 16 0v112a8 8 0 0 1 -8 8zm-28-112c-11.046 0-20 14.327-20 32s8.954 32 20 32 20-14.327 20-32-8.954-32-20-32z" fill="#fff" fill-rule="evenodd"/></svg>