<svg height="256" viewBox="0 0 256 256" width="256" xmlns="http://www.w3.org/2000/svg"><path d="m224 185.7v22.3a16 16 0 0 1 -16 16h-22.3a112.051 112.051 0 0 1 -115.4 0h-22.3a16 16 0 0 1 -16-16v-22.3a112.051 112.051 0 0 1 0-115.4v-22.3a16 16 0 0 1 16-16h22.3a112.051 112.051 0 0 1 115.4 0h22.3a16 16 0 0 1 16 16v22.3a112.051 112.051 0 0 1 0 115.4zm-16 30.3a8 8 0 1 0 -8-8 8 8 0 0 0 8 8zm-160 0a8 8 0 1 0 -8-8 8 8 0 0 0 8 8zm0-176a8 8 0 1 0 8 8 8 8 0 0 0 -8-8zm160 0a8 8 0 1 0 8 8 8 8 0 0 0 -8-8zm-80-8a96 96 0 1 0 96 96 96 96 0 0 0 -96-96zm0 136a40 40 0 1 1 40-40 40 40 0 0 1 -40 40z" fill="#fff" fill-rule="evenodd"/></svg>