<svg xmlns="http://www.w3.org/2000/svg" width="256" height="256" viewBox="0 0 256 256">
  <defs>
    <style>
      .cls-1 {
        fill: #fff;
        fill-rule: evenodd;
      }
    </style>
  </defs>
  <path class="cls-1" d="M224,185.7V208a16,16,0,0,1-16,16H185.7A112.051,112.051,0,0,1,70.3,224H48a16,16,0,0,1-16-16V185.7A112.051,112.051,0,0,1,32,70.3V48A16,16,0,0,1,48,32H70.3A112.051,112.051,0,0,1,185.7,32H208a16,16,0,0,1,16,16V70.3A112.051,112.051,0,0,1,224,185.7ZM208,216a8,8,0,1,0-8-8A8,8,0,0,0,208,216ZM48,216a8,8,0,1,0-8-8A8,8,0,0,0,48,216ZM48,40a8,8,0,1,0,8,8A8,8,0,0,0,48,40Zm160,0a8,8,0,1,0,8,8A8,8,0,0,0,208,40Zm-80-8a96,96,0,1,0,96,96A96,96,0,0,0,128,32Zm0,136a40,40,0,1,1,40-40A40,40,0,0,1,128,168Z"/>
</svg>
