<svg height="256" viewBox="0 0 256 256" width="256" xmlns="http://www.w3.org/2000/svg"><path d="m216.834 215.206c-27.928 7.206-36.834-23.206-36.834-23.206s-11.423-32-20-32h-64c-8.49 0-20 32-20 32s-8.762 30.412-36.768 23.206c-15.588-4.011-25.331-19.77-22.6-35.852l-.083-.022 17.322-108.766c5.224-21.626 26.446-34.787 47.4-29.4 8.629 2.224 15.55 6.834 24.729 6.834h44c8.989 0 16.68-4.706 24.914-6.83 20.9-5.392 42.057 7.77 47.266 29.4l17.268 108.766-.083.022c2.728 16.078-6.987 31.842-22.531 35.848zm-128.834-143.206a16 16 0 1 0 16 16 16 16 0 0 0 -16-16zm80 0a16 16 0 1 0 16 16 16 16 0 0 0 -16-16zm31.823 40.124c-2.473 13.627-33.673 15.876-71.823 15.876s-69.35-2.249-71.823-15.876a12.7 12.7 0 0 0 -.177 1.992c0 16.504 32.236 29.884 72 29.884s72-13.38 72-29.884a12.649 12.649 0 0 0 -.177-1.992z" fill="#fff" fill-rule="evenodd"/></svg>