<svg height="256" viewBox="0 0 256 256" width="256" xmlns="http://www.w3.org/2000/svg"><path d="m233.486 209.435a22.348 22.348 0 0 1 -31.583 0 22.691 22.691 0 0 1 -1.624-1.819l-39.79-39.616h-65.146l-39.557 39.229a22.34 22.34 0 0 1 -39.014-19.765l15.3-109.828a32.642 32.642 0 0 1 .928-6.636h.029a39.821 39.821 0 0 1 70.742-15h48.629a39.548 39.548 0 0 1 31.693-16 39.977 39.977 0 0 1 38.907 31.072h.029a32.831 32.831 0 0 1 .923 6.652l15.278 110.081a22.275 22.275 0 0 1 -5.744 21.63zm-137.486-137.435a16 16 0 1 0 16 16 16 16 0 0 0 -16-16zm64 0a16 16 0 1 0 16 16 16 16 0 0 0 -16-16zm39.669 31.9c-3.311 18.722-34.114 32.1-71.669 32.1s-68.358-13.378-71.669-32.1a27.446 27.446 0 0 0 -.331 4c0 24.354 32.236 44.1 72 44.1s72-19.742 72-44.1a27.419 27.419 0 0 0 -.331-4z" fill="#fff" fill-rule="evenodd"/></svg>