<svg height="256" viewBox="0 0 256 256" width="256" xmlns="http://www.w3.org/2000/svg"><path d="m192 240h-128a16 16 0 0 1 -16-16v-192a16 16 0 0 1 16-16h128a16 16 0 0 1 16 16v192a16 16 0 0 1 -16 16zm-80-24a8 8 0 0 0 8 8h16a8 8 0 0 0 8-8v-16a8 8 0 0 0 -8-8h-16a8 8 0 0 0 -8 8zm0-48a8 8 0 0 0 8 8h16a8 8 0 0 0 8-8v-16a8 8 0 0 0 -8-8h-16a8 8 0 0 0 -8 8zm0-48a8 8 0 0 0 8 8h16a8 8 0 0 0 8-8v-16a8 8 0 0 0 -8-8h-16a8 8 0 0 0 -8 8zm-48 96a8 8 0 0 0 8 8h16a8 8 0 0 0 8-8v-16a8 8 0 0 0 -8-8h-16a8 8 0 0 0 -8 8zm0-48a8 8 0 0 0 8 8h16a8 8 0 0 0 8-8v-16a8 8 0 0 0 -8-8h-16a8 8 0 0 0 -8 8zm0-48a8 8 0 0 0 8 8h16a8 8 0 0 0 8-8v-16a8 8 0 0 0 -8-8h-16a8 8 0 0 0 -8 8zm128-80a8 8 0 0 0 -8-8h-112a8 8 0 0 0 -8 8v32a8 8 0 0 0 8 8h112a8 8 0 0 0 8-8zm0 64a8 8 0 0 0 -8-8h-16a8 8 0 0 0 -8 8v16a8 8 0 0 0 8 8h16a8 8 0 0 0 8-8zm0 48a8 8 0 0 0 -8-8h-16a8 8 0 0 0 -8 8v64a8 8 0 0 0 8 8h16a8 8 0 0 0 8-8z" fill="#fff" fill-rule="evenodd"/></svg>