<svg xmlns="http://www.w3.org/2000/svg" width="256" height="256" viewBox="0 0 256 256">
  <defs>
    <style>
      .cls-1 {
        fill: #fff;
        fill-rule: evenodd;
      }
    </style>
  </defs>
  <path id="cassette" class="cls-1" d="M224,192H32a16,16,0,0,1-16-16V64A16,16,0,0,1,32,48H66.745L80,80h96l13.255-32H192v0.177L192.072,48H224a16,16,0,0,1,16,16V176A16,16,0,0,1,224,192ZM40,64a8,8,0,1,0,8,8A8,8,0,0,0,40,64Zm128,48H88a24,24,0,0,0,0,48h80A24,24,0,0,0,168,112Zm48-48a8,8,0,1,0,8,8A8,8,0,0,0,216,64Zm-48,80a8,8,0,1,1,8-8A8,8,0,0,1,168,144Zm-57.469,0a22.518,22.518,0,0,0,0-16h34.938a22.518,22.518,0,0,0,0,16H110.531ZM88,144a8,8,0,1,1,8-8A8,8,0,0,1,88,144Zm77.309-80H90.691L84.063,48h87.874Z"/>
</svg>
