<svg height="256" viewBox="0 0 256 256" width="256" xmlns="http://www.w3.org/2000/svg"><path d="m128 80a47.84 47.84 0 0 0 -45.455 33.269l-35.868-62.125a111.754 111.754 0 0 1 182.4 28.856zm-41.569 72 .173-.1a47.621 47.621 0 0 0 51.225 23.077l-35.729 61.891a111.847 111.847 0 0 1 -66.243-172.468zm9.569-24a32 32 0 1 1 32 32 32 32 0 0 1 -32-32zm73.569 24-.173-.1a47.006 47.006 0 0 0 -5.853-55.9h71.757a111.909 111.909 0 0 1 -107.3 144c-3.03 0-6.006-.217-8.976-.453z" fill="#fff" fill-rule="evenodd"/></svg>