<svg height="256" viewBox="0 0 256 256" width="256" xmlns="http://www.w3.org/2000/svg"><path d="m240 112v32l-24.216 4.036-11.544 27.869 14.27 19.977-22.628 22.628-19.977-14.27-27.869 11.544-4.036 24.216h-32l-4.036-24.216-27.864-11.544-19.982 14.27-22.628-22.628 14.27-19.977-11.544-27.869-24.216-4.036v-32l24.216-4.036 11.544-27.864-14.27-19.982 22.628-22.628 19.982 14.27 27.869-11.544 4.031-24.216h32l4.036 24.216 27.869 11.544 19.977-14.27 22.628 22.628-14.27 19.982 11.544 27.869zm-112-16a32 32 0 1 0 32 32 32 32 0 0 0 -32-32z" fill="#fff" fill-rule="evenodd"/></svg>