<svg height="256" viewBox="0 0 256 256" width="256" xmlns="http://www.w3.org/2000/svg"><path d="m216.745 196.325c-.227-.371-.309-.63-.18-.723a8 8 0 1 1 -9.405-12.944.28.28 0 0 1 -.249.017 96 96 0 1 0 -156.577 1.752 8 8 0 1 1 -13.653 8.19 5.824 5.824 0 0 0 .708 1.215 112 112 0 1 1 179.356 2.493zm-.18-.723a4.8 4.8 0 0 0 .757-.677 7.919 7.919 0 0 1 -.757.675zm-136.565-43.602c8.837 0 16 7.913 16 24v32c0 16.087-7.163 24-16 24s-16-7.913-16-24v-32c0-16.087 7.163-24 16-24zm96 0c8.837 0 16 7.913 16 24v32c0 16.087-7.163 24-16 24s-16-7.913-16-24v-32c0-16.087 7.163-24 16-24z" fill="#fff" fill-rule="evenodd"/></svg>