<svg height="256" viewBox="0 0 256 256" width="256" xmlns="http://www.w3.org/2000/svg"><path d="m228 192h-200a12 12 0 0 1 -12-12v-104a12 12 0 0 1 12-12h200a12 12 0 0 1 12 12v104a12 12 0 0 1 -12 12zm-68-38a6 6 0 0 0 6 6h4a6 6 0 0 0 6-6v-4a6 6 0 0 0 -6-6h-4a6 6 0 0 0 -6 6zm-64 0a6 6 0 0 0 6 6h36a6 6 0 0 0 6-6v-4a6 6 0 0 0 -6-6h-36a6 6 0 0 0 -6 6zm-32 0a6 6 0 0 0 6 6h4a6 6 0 0 0 6-6v-4a6 6 0 0 0 -6-6h-4a6 6 0 0 0 -6 6zm-32 0a6 6 0 0 0 6 6h4a6 6 0 0 0 6-6v-4a6 6 0 0 0 -6-6h-4a6 6 0 0 0 -6 6zm16-68a6 6 0 0 0 -6-6h-4a6 6 0 0 0 -6 6v4a6 6 0 0 0 6 6h4a6 6 0 0 0 6-6zm10 26h-20a6 6 0 0 0 -6 6v4a6 6 0 0 0 6 6h20a6 6 0 0 0 6-6v-4a6 6 0 0 0 -6-6zm22-26a6 6 0 0 0 -6-6h-4a6 6 0 0 0 -6 6v4a6 6 0 0 0 6 6h4a6 6 0 0 0 6-6zm10 26h-4a6 6 0 0 0 -6 6v4a6 6 0 0 0 6 6h4a6 6 0 0 0 6-6v-4a6 6 0 0 0 -6-6zm22-26a6 6 0 0 0 -6-6h-4a6 6 0 0 0 -6 6v4a6 6 0 0 0 6 6h4a6 6 0 0 0 6-6zm10 26h-4a6 6 0 0 0 -6 6v4a6 6 0 0 0 6 6h4a6 6 0 0 0 6-6v-4a6 6 0 0 0 -6-6zm22-26a6 6 0 0 0 -6-6h-4a6 6 0 0 0 -6 6v4a6 6 0 0 0 6 6h4a6 6 0 0 0 6-6zm10 26h-4a6 6 0 0 0 -6 6v4a6 6 0 0 0 6 6h4a6 6 0 0 0 6-6v-4a6 6 0 0 0 -6-6zm22-26a6 6 0 0 0 -6-6h-4a6 6 0 0 0 -6 6v4a6 6 0 0 0 6 6h4a6 6 0 0 0 6-6zm10 26h-4a6 6 0 0 0 -6 6v4a6 6 0 0 0 6 6h4a6 6 0 0 0 6-6v-4a6 6 0 0 0 -6-6zm38-26a6 6 0 0 0 -6-6h-20a6 6 0 0 0 -6 6v4a6 6 0 0 0 6 6h20a6 6 0 0 0 6-6zm0 32a6 6 0 0 0 -6-6h-4a6 6 0 0 0 -6 6v4a6 6 0 0 0 6 6h4a6 6 0 0 0 6-6zm0 32a6 6 0 0 0 -6-6h-20a6 6 0 0 0 -6 6v4a6 6 0 0 0 6 6h20a6 6 0 0 0 6-6z" fill="#fff" fill-rule="evenodd"/></svg>