<svg xmlns="http://www.w3.org/2000/svg" width="256" height="256" viewBox="0 0 256 256">
  <defs>
    <style>
      .cls-1 {
        fill: #fff;
        fill-rule: evenodd;
      }
    </style>
  </defs>
  <path id="link" class="cls-1" d="M192,176H144a47.54,47.54,0,0,1-45.061-64h17.5A31.68,31.68,0,0,0,112,128a32,32,0,0,0,32,32h48a32,32,0,0,0,0-64H166.972a64.16,64.16,0,0,0-13.1-16H192A48,48,0,0,1,192,176Zm-34.939-32h-17.5A31.68,31.68,0,0,0,144,128a32,32,0,0,0-32-32H64a32,32,0,0,0,0,64H89.028a64.142,64.142,0,0,0,13.1,16H64a48,48,0,0,1,0-96h48A47.54,47.54,0,0,1,157.061,144Z"/>
</svg>
