<svg height="256" viewBox="0 0 256 256" width="256" xmlns="http://www.w3.org/2000/svg"><path d="m224 224h-192a16 16 0 0 1 -16-16v-112a16 16 0 0 1 16-16h192a16 16 0 0 1 16 16v112a16 16 0 0 1 -16 16zm-196-168a4 4 0 1 1 4-4 4 4 0 0 1 -4 4zm0-24a4 4 0 1 1 4-4 4 4 0 0 1 -4 4zm212 16-16 16h-24l16-16zm-48 0-16 16h-24l16-16zm-48 0-16 16h-24l16-16zm-48 0-16 16h-24l16-16zm144-16-16-16h-24l16 16zm-48 0-16-16h-24l16 16zm-48 0-16-16h-24l16 16zm-48 0-16-16h-24l16 16zm66.047 130.375-47.111 27.389a11.97 11.97 0 0 1 -18.936-9.764v-56a11.97 11.97 0 0 1 18.936-9.764l47.111 27.389-.01.018a11.82 11.82 0 0 1 4.372 4.34 12.045 12.045 0 0 1 -4.362 16.392z" fill="#fff" fill-rule="evenodd"/></svg>