<svg height="256" viewBox="0 0 256 256" width="256" xmlns="http://www.w3.org/2000/svg"><path d="m234.667 192h-90.667v16h26a6 6 0 0 1 6 6v4a6 6 0 0 1 -6 6h-84a6 6 0 0 1 -6-6v-4a6 6 0 0 1 6-6h26v-16h-90.667a5.333 5.333 0 0 1 -5.333-5.333v-133.334a5.333 5.333 0 0 1 5.333-5.333h213.334a5.333 5.333 0 0 1 5.333 5.333v133.334a5.333 5.333 0 0 1 -5.333 5.333zm-10.667-125.333a2.667 2.667 0 0 0 -2.667-2.667h-186.666a2.667 2.667 0 0 0 -2.667 2.667v106.666a2.667 2.667 0 0 0 2.667 2.667h186.666a2.667 2.667 0 0 0 2.667-2.667zm-66.947 59.019-51.187 29.521a5.9 5.9 0 0 1 -6.332-.286 5.9 5.9 0 0 1 -3.534-5.406v-59.041a5.9 5.9 0 0 1 3.539-5.406 5.9 5.9 0 0 1 6.332-.286l51.182 29.518a7 7 0 0 1 0 11.386z" fill="#fff" fill-rule="evenodd"/></svg>