<svg xmlns="http://www.w3.org/2000/svg" width="256" height="256" viewBox="0 0 256 256">
  <defs>
    <style>
      .cls-1 {
        fill: #fff;
        fill-rule: evenodd;
      }
    </style>
  </defs>
  <path class="cls-1" d="M208,160H162a26,26,0,0,0-26,26c0,0.788.048,1.564,0.118,2.333,0.017,0.189.032,0.377,0.053,0.564,0.077,0.685.179,1.363,0.31,2.031,0.056,0.3.126,0.586,0.193,0.878,0.087,0.376.184,0.748,0.287,1.118,0.192,0.694.414,1.374,0.66,2.044,0.041,0.109.079,0.22,0.121,0.329A25.968,25.968,0,0,0,142,202.608v0.1c0.06,0.035.123,0.065,0.182,0.1h0a26.318,26.318,0,0,0,2.223,2.3c0.194,0.178.385,0.358,0.584,0.531q0.51,0.441,1.043.855c0.206,0.161.417,0.316,0.629,0.471,0.373,0.273.745,0.547,1.133,0.8A19.978,19.978,0,0,1,132,240a20.121,20.121,0,0,1-4-.4V240a112,112,0,0,1,0-224c59.647,0,107.943,46.758,111.35,105.551A32.029,32.029,0,0,1,208,160ZM48,112a16,16,0,1,0,16,16A16,16,0,0,0,48,112ZM72,56A16,16,0,1,0,88,72,16,16,0,0,0,72,56Zm0,112a16,16,0,1,0,16,16A16,16,0,0,0,72,168ZM128,32a16,16,0,1,0,16,16A16,16,0,0,0,128,32Zm56,24a16,16,0,1,0,16,16A16,16,0,0,0,184,56Zm24,56a16,16,0,1,0,16,16A16,16,0,0,0,208,112Z"/>
</svg>
