<svg height="256" viewBox="0 0 256 256" width="256" xmlns="http://www.w3.org/2000/svg"><path d="m224 240h-192a16 16 0 0 1 -16-16v-192a16 16 0 0 1 16-16h192a16 16 0 0 1 16 16v192a16 16 0 0 1 -16 16zm-101.274-167.632c-8.758-7.1-21.408-10.361-38.729-10.361-15.569 0-27.441 1.151-36 2.686l.003 127.307h24v-46.508c2.335.192 9.465.361 12.774.361 15.374 0 29.776-4.221 39.312-13.239 7.59-7.1 11.872-17.652 11.872-30.7.002-12.278-5.058-23.022-13.232-29.546zm58.4 43.274c7.1 0 14.208 2.692 18.237 4.765l4.8-19.22c-5.372-2.638-14.183-5.064-24.159-5.064-21.871 0-36.083 12.978-36.083 30.125 0 9.987 6.331 20.163 24.557 27.134 9.977 3.957 12.854 6.407 12.854 11.306s-3.645 7.67-11.7 7.67c-7.866 0-17.842-3.336-22.638-6.162l-5.18 19.785c6.331 3.58 16.882 6.019 27.818 6.019 24.55 0 38.368-11.861 38.368-29.573-.192-12.625-6.907-21.858-23.6-28.264-10.552-4.334-13.813-6.6-13.813-10.929-.002-4.523 3.631-7.592 10.538-7.592zm-96.739 8.338c-3.5 0-10.251-.029-12.392-.605v-38.75c1.946-.576 9.668-.937 14.533-.937 14.013 0 21.213 7.675 21.213 19.379-.001 12.855-8.564 20.913-23.354 20.913z" fill="#fff" fill-rule="evenodd"/></svg>