<svg height="16" viewBox="0 0 16 16" width="16" xmlns="http://www.w3.org/2000/svg"><path d="m14 15h-12a1 1 0 0 1 -1-1v-12a1 1 0 0 1 1-1h12a1 1 0 0 1 1 1v12a1 1 0 0 1 -1 1zm0-2v-10.5a.5.5 0 0 0 -.5-.5h-11a.5.5 0 0 0 -.5.5v11a.5.5 0 0 0 .5.5h11a.5.5 0 0 0 .5-.5zm-2.475-4.615a1.873 1.873 0 0 1 1.475 1.767c0 1.107-.864 1.848-2.4 1.848a3.789 3.789 0 0 1 -1.739-.376l.324-1.237a3.27 3.27 0 0 0 1.415.385c.5 0 .731-.173.731-.479s-.18-.459-.8-.707a1.917 1.917 0 0 1 -1.535-1.7 2 2 0 0 1 2.254-1.878 3.59 3.59 0 0 1 1.51.317l-.3 1.2a2.669 2.669 0 0 0 -1.14-.3.538.538 0 0 0 -.659.474c.001.274.204.415.864.686zm-6.225.731c-.207 0-.652-.011-.8-.023v2.907h-1.5v-7.957a12.99 12.99 0 0 1 2.25-.168 3.747 3.747 0 0 1 2.421.648 2.336 2.336 0 0 1 .829 1.847 2.546 2.546 0 0 1 -.742 1.919 3.558 3.558 0 0 1 -2.458.827zm.108-3.885a5.68 5.68 0 0 0 -.908.059v2.421a4.976 4.976 0 0 0 .774.038 1.279 1.279 0 0 0 1.46-1.307 1.16 1.16 0 0 0 -1.326-1.211z" fill="#fff" fill-rule="evenodd"/></svg>