<svg height="256" viewBox="0 0 256 256" width="256" xmlns="http://www.w3.org/2000/svg"><path d="m202.375 104.623c-9.669 0-14.756 4.155-14.756 10.278 0 5.867 4.566 8.929 19.338 14.8 23.368 8.674 32.768 21.174 33.037 38.266 0 23.98-19.339 40.037-53.719 40.037-15.31 0-30.082-3.3-38.945-8.149l7.252-26.786c6.715 3.826 20.681 8.343 31.693 8.343 11.281 0 16.385-3.751 16.385-10.384s-4.029-9.949-18-15.306c-25.516-9.439-34.38-23.215-34.38-36.735 0-23.215 19.9-40.786 50.516-40.786 13.967 0 26.3 3.285 33.822 6.856l-6.715 26.021c-5.636-2.81-15.59-6.455-25.528-6.455zm-134.889 40.9c-4.632.001-16.216-1.263-19.486-1.523v64h-32l-.009-172.353c11.988-2.078 28.609-3.637 50.409-3.637 24.249 0 41.959 4.416 54.22 14.027 11.444 8.832 18.528 23.378 18.528 40 0 17.664-6 31.95-16.621 41.56-13.354 12.212-33.516 17.927-55.041 17.927zm2.452-84.161c-6.811 0-19.214.858-21.938 1.637v52c3 .779 14.037.911 18.941.911 20.707 0 32.7-10.909 32.7-28.313-.004-15.844-10.085-26.234-29.703-26.234z" fill="#fff" fill-rule="evenodd"/></svg>