<svg height="256" viewBox="0 0 256 256" width="256" xmlns="http://www.w3.org/2000/svg"><path d="m192 240h-128a16 16 0 0 1 -16-16v-176h16a47.846 47.846 0 0 1 89.866-23.035 31.944 31.944 0 0 1 54.134 23.035v176a16 16 0 0 1 -16 16zm-80-224a32 32 0 0 0 -32 32h64a32 32 0 0 0 -32-32zm64 16a16 16 0 0 0 -16 16h32a16 16 0 0 0 -16-16zm16 32h-128v152a8 8 0 0 0 8 8h112a8 8 0 0 0 8-8zm-56 98.005h16l-8-13.677 12.031-6.936 19.959 34.588h-39.99zm-8.006-41.005-7.927 13.543-12.123-6.986 20.044-34.717 20.042 34.714-12.113 6.983zm-15.994 27.33-8 13.675h16v13.975h-40.015l19.97-34.589z" fill="#fff" fill-rule="evenodd"/></svg>