<svg height="256" viewBox="0 0 256 256" width="256" xmlns="http://www.w3.org/2000/svg"><path d="m224 176h-72v32h24a16 16 0 0 1 16 16h-128a16 16 0 0 1 16-16h24v-32h-72a16 16 0 0 1 -16-16v-112a16 16 0 0 1 16-16h192a16 16 0 0 1 16 16v112a16 16 0 0 1 -16 16zm0-124a4 4 0 0 0 -4-4h-184a4 4 0 0 0 -4 4v104a4 4 0 0 0 4 4h184a4 4 0 0 0 4-4zm-96 84c-17.673 0-32-7.163-32-16a8.732 8.732 0 0 1 1.132-4c3.569 6.889 15.974 12 30.868 12s27.3-5.111 30.868-12a8.732 8.732 0 0 1 1.132 4c0 8.837-14.327 16-32 16zm28-40a4 4 0 0 1 -4-4v-16a4 4 0 0 1 8 0v16a4 4 0 0 1 -4 4zm-56 0a4 4 0 0 1 -4-4v-16a4 4 0 0 1 8 0v16a4 4 0 0 1 -4 4z" fill="#fff" fill-rule="evenodd"/></svg>