<svg height="256" viewBox="0 0 256 256" width="256" xmlns="http://www.w3.org/2000/svg"><path d="m224 240h-192a16 16 0 0 1 -16-16v-192a16 16 0 0 1 16-16h192a16 16 0 0 1 16 16v192a16 16 0 0 1 -16 16zm-32-90.643v-21.332a2.738 2.738 0 0 0 -1.068-2.282 5.884 5.884 0 0 0 -2.932-2.137l-47.807-14.52 47.807-14.566a5.772 5.772 0 0 0 4-5.077v-38.582c0-2.131-1.791-3.312-4-2.639l-120 36.563a5.771 5.771 0 0 0 -4 5.077v38.582a3.074 3.074 0 0 0 .329 1.428 6 6 0 0 0 3.671 3.437l47.074 14.3-47.074 14.34a5.771 5.771 0 0 0 -4 5.077v38.582c0 2.131 1.791 3.312 4 2.639l120-36.563a5.771 5.771 0 0 0 4-5.077z" fill="#fff" fill-rule="evenodd"/></svg>