<svg height="256" viewBox="0 0 256 256" width="256" xmlns="http://www.w3.org/2000/svg"><path d="m195.5 179.822-134.9 43.978c-2.483.81-4.5-.6-4.5-3.147v-46.132a6.856 6.856 0 0 1 4.5-6.078l52.921-17.25-52.921-16.993a6.913 6.913 0 0 1 -4.127-4.1 3.86 3.86 0 0 1 -.37-1.706v-46.126a6.857 6.857 0 0 1 4.5-6.078l134.897-43.974c2.483-.81 4.5.6 4.5 3.147v46.127a6.857 6.857 0 0 1 -4.5 6.078l-53.746 17.519 53.746 17.255a6.64 6.64 0 0 1 3.3 2.549 3.346 3.346 0 0 1 1.2 2.726v46.127a6.856 6.856 0 0 1 -4.5 6.078z" fill="#fff" fill-rule="evenodd"/></svg>