<svg height="16" viewBox="0 0 16 16" width="16" xmlns="http://www.w3.org/2000/svg"><path d="m2 2h12a1 1 0 0 1 1 1v10a1 1 0 0 1 -1 1h-12a1 1 0 0 1 -1-1v-10a1 1 0 0 1 1-1zm.5 2h11a.5.5 0 0 1 .5.5v8a.5.5 0 0 1 -.5.5h-11a.5.5 0 0 1 -.5-.5v-8a.5.5 0 0 1 .5-.5zm5 4h-1a.5.5 0 0 1 0-1h1a.5.5 0 0 1 0 1zm-2.732-1.084-.941.941a.485.485 0 1 1 -.686-.686l.672-.671-.67-.67a.485.485 0 1 1 .686-.686l.938.937a.465.465 0 0 1 .09.06.54.54 0 0 1 0 .716.464.464 0 0 1 -.089.059z" fill="#fff" fill-rule="evenodd"/></svg>