<svg height="256" viewBox="0 0 256 256" width="256" xmlns="http://www.w3.org/2000/svg"><path d="m248 224a8 8 0 0 1 -8-8v-176a8 8 0 0 1 16 0v176a8 8 0 0 1 -8 8zm-40 16h-192a16 16 0 0 1 -16-16v-192a16 16 0 0 1 16-16h192a16 16 0 0 1 16 16v192a16 16 0 0 1 -16 16zm-96-192a80 80 0 1 0 80 80 80 80 0 0 0 -80-80zm50.641 87.713-69.282 40a7.981 7.981 0 0 1 -8.569-.388 8 8 0 0 1 -4.79-7.325v-80a8 8 0 0 1 4.79-7.325 7.982 7.982 0 0 1 8.569-.388l69.282 40a8 8 0 0 1 3.959 7.713 8 8 0 0 1 -3.959 7.713z" fill="#fff" fill-rule="evenodd"/></svg>